<?xml version="1.0" encoding="utf-8"?>
<!-- Generator: Adobe Illustrator 23.0.1, SVG Export Plug-In . SVG Version: 6.00 Build 0)  -->
<svg version="1.1" id="Layer_1" xmlns="http://www.w3.org/2000/svg" xmlns:xlink="http://www.w3.org/1999/xlink" x="0px" y="0px"
	 viewBox="0 0 95.49 41.43" style="enable-background:new 0 0 95.49 41.43;" xml:space="preserve">
<style type="text/css">
	.st0{clip-path:url(#SVGID_2_);fill:#FFFFFF;}
	.st1{clip-path:url(#SVGID_4_);fill:#FFFFFF;}
	.st2{clip-path:url(#SVGID_6_);fill:#FFFFFF;}
</style>
<g>
	<defs>
		<path id="SVGID_1_" d="M89.9,30.96c-3.53-1.77-0.45-0.42-4.79-2.22c-4.34-1.81-5.36-2.4-5.36-2.4l-0.04-4.14
			c0,0,1.62-1.24,2.13-5.15c1.01,0.3,1.36-1.19,1.41-2.15c0.06-0.92,0.6-3.78-0.64-3.53c0.25-1.91,0.45-3.64,0.36-4.56
			C82.67,3.6,80.45,0.24,74.87,0c-4.75,0.25-7.83,3.6-8.14,6.82c-0.09,0.92,0.09,2.64,0.35,4.56c-1.24-0.26-0.71,2.61-0.65,3.53
			c0.06,0.95,0.39,2.45,1.41,2.15c0.51,3.92,2.13,5.16,2.13,5.16l-0.04,4.16c0,0-1.03,0.63-5.37,2.44c-4.34,1.81-0.86,0.38-4.4,2.14
			c-5.58,2.79-5.58,10.47-5.58,10.47h20.29h20.62C95.49,41.43,95.49,33.75,89.9,30.96z"/>
	</defs>
	<clipPath id="SVGID_2_">
		<use xlink:href="#SVGID_1_"  style="overflow:visible;"/>
	</clipPath>
	<rect x="49.58" y="-5" class="st0" width="50.91" height="51.43"/>
</g>
<g>
	<defs>
		<path id="SVGID_3_" d="M54.72,29.58c-0.22-0.49-1.72-1.49-2.1-1.54l-0.06-2.05l4.34-1.35c0,0,1.12-0.52,1.23-0.52
			s-0.52-0.82-0.6-1.04c-0.08-0.22-0.49-1.71-0.49-1.71s1.47,1.79,2.21,2.13c0,0-1.46-2.74-1.89-4.27
			c-0.44-1.53-0.72-3.91-0.72-4.13c0-0.22-0.9-6.63-1.39-7.69c-0.49-1.06-1.16-2.51-2.3-3.22c-1.14-0.71-2.83-1.72-5.26-1.85
			c-0.04,0-0.07,0-0.11-0.01c-0.04,0-0.07,0-0.11,0.01c-2.43,0.13-4.12,1.14-5.26,1.85c-1.14,0.71-1.81,2.15-2.3,3.22
			c-0.49,1.06-1.39,7.47-1.39,7.69c0,0.22-0.26,2.7-0.69,4.22c-0.44,1.53-1.93,4.17-1.93,4.17c0.74-0.34,2.21-2.13,2.21-2.13
			s-0.53,1.64-0.61,1.86c-0.08,0.22-0.59,0.9-0.48,0.9c0.11,0,1.23,0.52,1.23,0.52l4.34,1.35l-0.06,2.05
			c-0.38,0.06-1.88,1.05-2.1,1.54c-0.22,0.49-0.85,1.58-1.21,1.71c-0.79,0.29-2.49,0.98-3.01,1.37c-0.89,0.67-3.03,1.26-4.69,1.53
			c-1.66,0.27-2.71,2.76-2.71,2.76c-0.01,0.08-0.57,4.41-0.56,4.49h24.12c0.01-1.17,0.29-6.12,4.2-10.3
			C56.28,30.75,54.85,29.88,54.72,29.58z"/>
	</defs>
	<clipPath id="SVGID_4_">
		<use xlink:href="#SVGID_3_"  style="overflow:visible;"/>
	</clipPath>
	<rect x="23.25" y="-2.67" class="st1" width="41" height="49.1"/>
</g>
<g>
	<defs>
		<polygon id="SVGID_5_" points="25.71,17.68 16.26,17.68 16.26,8.23 9.45,8.23 9.45,17.68 0,17.68 0,24.48 9.45,24.48 9.45,33.93 
			16.26,33.93 16.26,24.48 25.71,24.48 		"/>
	</defs>
	<clipPath id="SVGID_6_">
		<use xlink:href="#SVGID_5_"  style="overflow:visible;"/>
	</clipPath>
	<rect x="-5" y="3.23" class="st2" width="35.71" height="35.71"/>
</g>
</svg>
