<?xml version="1.0" encoding="UTF-8"?>
<svg width="45px" height="49px" viewBox="0 0 45 49" version="1.1" xmlns="http://www.w3.org/2000/svg" xmlns:xlink="http://www.w3.org/1999/xlink">
    <!-- Generator: Sketch 54.1 (76490) - https://sketchapp.com -->
    <title>birthday</title>
    <desc>Created with Sketch.</desc>
    <g id="Page-1" stroke="none" stroke-width="1" fill="none" fill-rule="evenodd">
        <g id="birthday" fill="#FFFFFF" fill-rule="nonzero">
            <path d="M21.7549744,11.3986816 C21.9150086,11.3986816 22.0450135,11.3886718 22.1349793,11.3786621 C22.1949769,11.3886719 22.2649842,11.3886719 22.355011,11.3886719 C23.3050232,11.3886719 24.1349793,10.9486695 24.6250305,10.178711 C25.6650085,8.5386964 25.144989,5.5587159 23.0249939,1.0786744 C22.8650208,0.7286988 22.5249939,0.5086671 22.144989,0.4987183 C21.7749939,0.5186768 21.4150085,0.6986695 21.2450256,1.0286866 C18.8849792,5.428711 18.2350158,8.388672 19.2450256,10.0786744 C19.7450256,10.9187012 20.6650085,11.3986816 21.7549744,11.3986816 Z" id="Path"></path>
            <path d="M35.684845,36.3782349 C33.8865052,36.3782349 32.1540833,35.8362427 30.6755677,34.8118286 L30.3557435,34.5960083 C29.8869935,34.2688599 29.3283997,34.098938 28.7536927,34.098938 C28.1775208,34.098938 27.6140443,34.2698364 27.1672669,34.5803833 C25.7092591,35.5911255 23.9787903,36.1243286 22.1599427,36.1243286 C20.3410951,36.1243286 18.6106263,35.5911255 17.1560364,34.5823364 C16.7073059,34.2688598 16.1482239,34.098938 15.5740051,34.098938 C14.9973449,34.098938 14.4338684,34.2698364 13.987091,34.5803833 L13.7424621,34.7434692 C12.3391418,35.7229614 10.5549621,36.2756958 8.7536926,36.2756958 C7.4524231,36.2756958 6.1721496,35.9924927 5.0202942,35.4534302 L2.6819153,35.4306641 L2.6819153,44.0637818 C2.6819153,46.5110474 4.672638,48.5012818 7.1199036,48.5012818 L37.881134,48.5012818 C40.3279113,48.5012818 42.318634,46.5110474 42.318634,44.0637818 L42.318634,35.6487427 L39.1819152,35.6487427 C38.0867004,36.1272583 36.88797,36.3782349 35.684845,36.3782349 Z" id="Path"></path>
            <path d="M40.5450134,21.968689 L25.6250305,21.968689 L25.6250305,14.5186768 C25.6250305,14.2086792 25.4850159,13.928711 25.2450256,13.7387085 C23.3450012,12.1986694 20.5849914,12.1986694 18.685028,13.7387085 C18.4449767,13.9287109 18.3149718,14.2086792 18.3149718,14.5186768 L18.3149718,21.968689 L4.4549866,21.968689 C2.2350159,21.968689 0.4250183,23.7786866 0.4250183,25.9987183 L0.4250183,32.4187012 C0.4250183,32.968689 0.8750305,33.4086914 1.4250183,33.4187012 L5.5049744,33.4586792 C7.7149964,34.6687012 10.5550232,34.5286865 12.6349793,33.0786743 L12.8450013,32.9386597 C14.4549867,31.8186646 16.6949769,31.8186646 18.2950135,32.9386597 C20.5749818,34.5186768 23.7450257,34.5186768 26.024994,32.9386597 C27.6349794,31.8186646 29.8750306,31.8186646 31.4750062,32.9386597 L31.814972,33.1687012 C32.9549866,33.9586792 34.2950135,34.3786621 35.6850282,34.3786621 C36.7450258,34.3786621 37.7950136,34.1286621 38.735016,33.6486816 L43.5749818,33.6486816 C44.1250306,33.6486816 44.5749818,33.1986694 44.5749818,32.6486816 L44.5749818,25.9987182 C44.5749817,23.7786865 42.7649841,21.968689 40.5450134,21.968689 Z" id="Path"></path>
        </g>
    </g>
</svg>