<?xml version="1.0" encoding="UTF-8"?>
<svg width="101px" height="100px" viewBox="0 0 101 100" version="1.1" xmlns="http://www.w3.org/2000/svg" xmlns:xlink="http://www.w3.org/1999/xlink">
    <!-- Generator: Sketch 54.1 (76490) - https://sketchapp.com -->
    <title>cancel</title>
    <desc>Created with Sketch.</desc>
    <g id="Page-1" stroke="none" stroke-width="1" fill="none" fill-rule="evenodd">
        <path d="M50.7231981,0 C62.7567879,0 74.1780766,4.28610726 83.1751531,11.983606 L83.1751531,11.983606 C105.192999,30.6400437 106.804975,64.5915115 86.0617151,85.3222751 C61.3322508,110.064235 19.7957478,102.266769 5.3254498,70.9019609 C-9.85711673,38.0126481 14.1475831,0 50.7231981,0 Z M66.3806104,7.53505154 C37.0401443,-3.2864321 5.50039296,18.4315108 5.50039296,49.9837581 C5.50039296,62.5671693 10.661216,74.3133524 19.6083087,82.8105913 L78.2642489,14.1079157 C74.6904102,11.358809 70.6917095,9.1345318 66.3806104,7.53505154 Z M81.8755754,17.1819169 L23.2196352,85.8970884 C52.6475728,108.452259 95.9460033,87.6465199 95.9460033,49.9837581 C95.9460033,37.400347 90.8101722,25.6791557 81.8755754,17.1819169 Z" id="cancel" fill="#FFFFFF" fill-rule="nonzero"></path>
    </g>
</svg>