<?xml version="1.0" encoding="UTF-8"?>
<svg width="90px" height="64px" viewBox="0 0 90 64" version="1.1" xmlns="http://www.w3.org/2000/svg" xmlns:xlink="http://www.w3.org/1999/xlink">
    <!-- Generator: Sketch 54.1 (76490) - https://sketchapp.com -->
    <title>chest icon</title>
    <desc>Created with Sketch.</desc>
    <g id="Page-1" stroke="none" stroke-width="1" fill="none" fill-rule="evenodd">
        <g id="chest-icon" transform="translate(0.000000, -1.000000)" fill="#000000" fill-rule="nonzero">
            <g id="Group" transform="translate(0.000000, 0.637840)">
                <path d="M14.344304,0.78151 C6.397472,0.78151 1.61e-05,7.17901 1.61e-05,15.12581 L1.61e-05,18.36491 L20.515608,18.36491 L20.515608,0.78151 L14.344304,0.78151 Z M23.754678,0.78151 L23.754678,18.36491 L66.245354,18.36491 L66.245354,0.78151 L23.754678,0.78151 Z M69.484425,0.78151 L69.484425,18.36491 L89.999984,18.36491 L89.999984,15.12581 C89.999984,7.17901 83.601913,0.78151 75.65508,0.78151 L69.484425,0.78151 Z M1.61e-05,21.60401 L1.61e-05,63.9429 L20.515608,63.9429 L23.754678,63.9429 L66.245354,63.9429 L69.484425,63.9429 L89.999984,63.9429 L89.999984,21.60401 L69.484425,21.60401 L66.245354,21.60401 L23.754678,21.60401 L20.515608,21.60401 L1.61e-05,21.60401 Z M31.91435,24.84301 L58.08565,24.84301 L58.08565,35.6775 C58.08565,42.9268 52.24904,48.7615 44.999708,48.7615 C37.750377,48.7615 31.91435,42.9268 31.91435,35.6775 L31.91435,24.84301 Z M44.999708,28.07891 C42.415902,28.07891 40.32139,30.1735 40.32139,32.7573 C40.32529,34.5762 41.379853,36.2288 43.029673,36.9946 L41.453801,44.118 L48.545584,44.118 L46.969711,36.994 C48.619305,36.2282 49.675371,34.5759 49.677995,32.7573 C49.677995,30.1735 47.583515,28.07891 44.999708,28.07891 L44.999708,28.07891 Z M3.2390871,51.2965 C5.73405193,51.2965 8.12682851,52.2876255 9.89102868,54.0518385 C11.6552288,55.8160514 12.6463371,58.2088352 12.646319,60.7038 L3.2390871,60.7038 L3.2390871,51.2965 Z M86.760913,51.2965 L86.760913,60.7038 L77.353714,60.7038 C77.3536959,58.2088409 78.3447996,55.8160621 80.1089927,54.0518501 C81.8731857,52.2876381 84.2659539,51.2965087 86.760913,51.2965 Z" id="Shape"></path>
            </g>
        </g>
    </g>
</svg>