<?xml version="1.0" encoding="UTF-8"?>
<svg width="210px" height="210px" viewBox="0 0 210 210" version="1.1" xmlns="http://www.w3.org/2000/svg" xmlns:xlink="http://www.w3.org/1999/xlink">
    <!-- Generator: Sketch 54.1 (76490) - https://sketchapp.com -->
    <title>closed chest icon with bg</title>
    <desc>Created with Sketch.</desc>
    <defs>
        <filter x="-10.9%" y="-15.4%" width="121.8%" height="130.8%" filterUnits="objectBoundingBox" id="filter-1">
            <feOffset dx="0" dy="2" in="SourceAlpha" result="shadowOffsetOuter1"></feOffset>
            <feGaussianBlur stdDeviation="2" in="shadowOffsetOuter1" result="shadowBlurOuter1"></feGaussianBlur>
            <feColorMatrix values="0 0 0 0 0   0 0 0 0 0   0 0 0 0 0  0 0 0 0.496831294 0" type="matrix" in="shadowBlurOuter1" result="shadowMatrixOuter1"></feColorMatrix>
            <feMerge>
                <feMergeNode in="shadowMatrixOuter1"></feMergeNode>
                <feMergeNode in="SourceGraphic"></feMergeNode>
            </feMerge>
        </filter>
        <linearGradient x1="50%" y1="0%" x2="50%" y2="100%" id="linearGradient-2">
            <stop stop-color="#FFA07E" offset="0%"></stop>
            <stop stop-color="#F56333" offset="100%"></stop>
        </linearGradient>
    </defs>
    <g id="closed-chest-icon-with-bg" stroke="none" stroke-width="1" fill="none" fill-rule="evenodd">
        <rect fill="#E6E296" x="0" y="0" width="210" height="210"></rect>
        <g id="chest" filter="url(#filter-1)" transform="translate(50.714286, 66.000000)">
            <path d="M54.7857143,78 L3.14660667,78 C1.57311586,78 0.285714286,76.7229147 0.285714286,75.1620326 L0.285714286,23.936721 C0.285714286,18.8993289 1.64463817,14.4295302 4.50553056,10.8820709 C7.08033371,7.61840844 10.9425384,5.27708533 16.163667,4.14189837 C16.378234,4.07094919 16.6643232,4 16.9504124,4 L54.7857143,4 L92.6925384,4 C92.9071054,4 93.1931946,4.07094919 93.4792838,4.14189837 C98.6288901,5.27708533 102.491095,7.61840844 105.13742,10.8820709 C107.92679,14.4295302 109.285714,18.8993289 109.285714,23.936721 L109.285714,75.1620326 C109.285714,76.7229147 107.998313,78 106.424822,78 L54.7857143,78 Z" id="Path" fill="url(#linearGradient-2)" fill-rule="nonzero"></path>
            <polygon id="Path" fill="#FFC626" points="54.7857143 26.9445 46.2657143 26.9445 46.2657143 44.0555 54.7857143 44.0555 63.3057143 44.0555 63.3057143 26.9445"></polygon>
            <path d="M6.22206599,21.0987536 L43.3421447,21.0987536 L54.7857143,21.0987536 L66.3008061,21.0987536 L103.349363,21.0987536 C102.991751,18.4736337 102.133483,16.2032598 100.631515,14.4295302 C98.8434571,12.1591563 96.1256093,10.527325 92.3349269,9.6759348 L54.7857143,9.6759348 L17.2365017,9.6759348 C13.4458193,10.527325 10.7279715,12.1591563 8.93991376,14.4295302 C7.43794526,16.2032598 6.57967754,18.4736337 6.22206599,21.0987536 Z M54.7857143,26.7746884 L46.2030371,26.7746884 L46.2030371,43.873442 L54.7857143,43.873442 L63.3683915,43.873442 L63.3683915,26.7746884 L54.7857143,26.7746884 Z M54.7857143,49.5493768 L43.3421447,49.5493768 C41.6971316,49.5493768 40.4812523,48.2722915 40.4812523,46.7114094 L40.4812523,26.7746884 L6.00749906,26.7746884 L6.00749906,72.3240652 L54.7857143,72.3240652 L103.56393,72.3240652 L103.56393,26.7746884 L69.1616985,26.7746884 L69.1616985,46.7114094 C69.1616985,48.2722915 67.874297,49.5493768 66.3008061,49.5493768 L54.7857143,49.5493768 Z M54.7857143,78 L3.14660667,78 C1.57311586,78 0.285714286,76.7229147 0.285714286,75.1620326 L0.285714286,23.936721 C0.285714286,18.8993289 1.64463817,14.4295302 4.50553056,10.8820709 C7.08033371,7.61840844 10.9425384,5.27708533 16.163667,4.14189837 C16.378234,4.07094919 16.6643232,4 16.9504124,4 L54.7857143,4 L92.6925384,4 C92.9071054,4 93.1931946,4.07094919 93.4792838,4.14189837 C98.6288901,5.27708533 102.491095,7.61840844 105.13742,10.8820709 C107.92679,14.4295302 109.285714,18.8993289 109.285714,23.936721 L109.285714,75.1620326 C109.285714,76.7229147 107.998313,78 106.424822,78 L54.7857143,78 Z M54.7857143,40.4678811 L58.2187852,40.4678811 L57.0029059,36.1399808 C57.7896513,35.5014382 58.2187852,34.5790988 58.2187852,33.514861 C58.2187852,31.6701822 56.7168166,30.1093001 54.7857143,30.1093001 C52.8546119,30.1093001 51.3526434,31.6701822 51.3526434,33.514861 C51.3526434,34.5790988 51.8532996,35.5014382 52.5685227,36.1399808 L51.3526434,40.4678811 L54.7857143,40.4678811 Z" id="Shape" fill="#31323D" fill-rule="nonzero"></path>
        </g>
    </g>
</svg>