<?xml version="1.0" encoding="UTF-8"?>
<svg width="36px" height="84px" viewBox="0 0 36 84" version="1.1" xmlns="http://www.w3.org/2000/svg" xmlns:xlink="http://www.w3.org/1999/xlink">
    <!-- Generator: Sketch 54.1 (76490) - https://sketchapp.com -->
    <title>dna icon white</title>
    <desc>Created with Sketch.</desc>
    <g id="Page-1" stroke="none" stroke-width="1" fill="none" fill-rule="evenodd">
        <path d="M3,84 C4.658,84 6,82.657 6,81 C6,78.873 6.101,76.888 6.272,75 L29.728,75 C29.899,76.888 30,78.873 30,81 C30,82.657 31.342,84 33,84 C34.658,84 36,82.657 36,81 C36,61.529 29.007,51.394 21.802,42.105 C29.017,32.793 36,22.604 36,3 C36,1.343 34.658,0 33,0 C31.342,0 30,1.343 30,3 C30,5.126 29.899,7.111 29.731,9 L6.269,9 C6.101,7.111 6,5.126 6,3 C6,1.343 4.658,0 3,0 C1.342,0 0,1.343 0,3 C0,22.604 6.983,32.793 14.198,42.105 C6.993,51.394 0,61.529 0,81 C0,82.657 1.342,84 3,84 Z M7.125,15 L28.875,15 C28.441,17.146 27.894,19.137 27.25,21 L8.75,21 C8.106,19.137 7.559,17.146 7.125,15 Z M11.323,27 L24.677,27 C22.747,30.737 20.439,34.009 18,37.206 C15.561,34.009 13.253,30.737 11.323,27 Z M18,47.004 C20.4,50.146 22.679,53.351 24.592,57 L11.408,57 C13.321,53.351 15.6,50.146 18,47.004 Z M8.802,63 L27.198,63 C27.854,64.864 28.416,66.851 28.858,69 L7.142,69 C7.584,66.851 8.146,64.864 8.802,63 Z" id="dna-icon-white" fill="#FFFFFF" fill-rule="nonzero"></path>
    </g>
</svg>