<?xml version="1.0" encoding="UTF-8"?>
<svg width="29px" height="46px" viewBox="0 0 29 46" version="1.1" xmlns="http://www.w3.org/2000/svg" xmlns:xlink="http://www.w3.org/1999/xlink">
    <!-- Generator: Sketch 54.1 (76490) - https://sketchapp.com -->
    <title>emote icon white</title>
    <desc>Created with Sketch.</desc>
    <g id="Page-1" stroke="none" stroke-width="1" fill="none" fill-rule="evenodd">
        <g id="emote-icon-white" transform="translate(0.000000, -1.000000)" fill="#FFFFFF" fill-rule="nonzero">
            <circle id="Oval" cx="16.066" cy="5.438" r="3.938"></circle>
            <path d="M26.951,9.235 C25.861,9.052 24.832,9.795 24.655,10.885 C23.945,15.22 23.063,15.578 23.054,15.581 C22.889,15.636 21.899,15.732 17.917,12.191 C17.64,11.748 17.271,11.354 16.796,11.061 C16.695,10.999 16.588,10.96 16.484,10.91 C16.265,10.778 16.02,10.689 15.757,10.649 C15.3,10.542 14.836,10.528 14.384,10.605 C5.352,10.491 5.298,10.206 3.97,2.654 C3.779,1.567 2.742,0.837 1.655,1.03 C0.567,1.221 -0.16,2.258 0.031,3.346 C1.575,12.128 3.265,14.019 10.793,14.474 C9.096,18.193 8.663,22.161 9.565,25.962 C9.541,26.151 9.533,26.344 9.554,26.542 C10.504,35.257 8.889,36.771 4.575,40.815 C4.043,41.313 3.481,41.84 2.89,42.411 C1.897,43.37 1.87,44.953 2.829,45.946 C3.319,46.454 3.973,46.709 4.627,46.709 C5.253,46.709 5.879,46.476 6.364,46.007 C6.935,45.455 7.478,44.945 7.993,44.464 C12.321,40.407 14.841,37.621 14.788,30.317 C19.727,34.208 19.356,35.996 18.701,39.097 C18.386,40.587 18.029,42.276 18.131,44.333 C18.197,45.67 19.302,46.709 20.626,46.709 C20.668,46.709 20.71,46.708 20.752,46.706 C22.13,46.638 23.193,45.465 23.125,44.085 C23.055,42.676 23.316,41.439 23.593,40.131 C24.612,35.314 24.724,31.45 16.848,25.596 C16.761,25.532 16.667,25.485 16.576,25.433 C16.548,25.2 16.515,24.966 16.446,24.722 C15.738,22.243 16.062,19.52 17.348,16.945 C19.454,18.602 21.278,19.593 22.977,19.593 C23.454,19.593 23.92,19.515 24.38,19.354 C27.128,18.387 28.055,14.857 28.601,11.531 C28.781,10.442 28.041,9.414 26.951,9.235 Z" id="Path"></path>
        </g>
    </g>
</svg>