<?xml version="1.0" encoding="utf-8"?>
<!-- Generator: Adobe Illustrator 23.0.1, SVG Export Plug-In . SVG Version: 6.00 Build 0)  -->
<svg version="1.1" id="Layer_1" xmlns="http://www.w3.org/2000/svg" xmlns:xlink="http://www.w3.org/1999/xlink" x="0px" y="0px"
	 viewBox="0 0 29 46.8" style="enable-background:new 0 0 29 46.8;" xml:space="preserve">
<style type="text/css">
	.st0{clip-path:url(#SVGID_2_);}
	.st1{clip-path:url(#SVGID_4_);}
</style>
<g>
	<defs>
		<circle id="SVGID_1_" cx="16.07" cy="4.24" r="3.94"/>
	</defs>
	<clipPath id="SVGID_2_">
		<use xlink:href="#SVGID_1_"  style="overflow:visible;"/>
	</clipPath>
	<rect x="7.13" y="-4.7" class="st0" width="17.88" height="17.88"/>
</g>
<g>
	<defs>
		<path id="SVGID_3_" d="M27.14,8.78c-1.09-0.18-2.12,0.56-2.3,1.65c-0.71,4.34-1.59,4.69-1.6,4.7c-0.17,0.06-1.16,0.15-5.14-3.39
			c-0.28-0.44-0.65-0.84-1.12-1.13c-0.1-0.06-0.21-0.1-0.31-0.15c-0.22-0.13-0.46-0.22-0.73-0.26c-0.46-0.11-0.92-0.12-1.37-0.04
			C5.54,10.04,5.48,9.75,4.16,2.2C3.96,1.11,2.93,0.38,1.84,0.58C0.75,0.77,0.03,1.8,0.22,2.89c1.54,8.78,3.23,10.67,10.76,11.13
			c-1.7,3.72-2.13,7.69-1.23,11.49c-0.02,0.19-0.03,0.38-0.01,0.58c0.95,8.72-0.66,10.23-4.98,14.27c-0.53,0.5-1.09,1.03-1.68,1.6
			c-0.99,0.96-1.02,2.54-0.06,3.53c0.49,0.51,1.14,0.76,1.8,0.76c0.63,0,1.25-0.23,1.74-0.7c0.57-0.55,1.11-1.06,1.63-1.54
			c4.33-4.06,6.85-6.84,6.8-14.15c4.94,3.89,4.57,5.68,3.91,8.78c-0.32,1.49-0.67,3.18-0.57,5.24c0.07,1.34,1.17,2.38,2.49,2.38
			c0.04,0,0.08,0,0.13,0c1.38-0.07,2.44-1.24,2.37-2.62c-0.07-1.41,0.19-2.65,0.47-3.95c1.02-4.82,1.13-8.68-6.75-14.53
			c-0.09-0.06-0.18-0.11-0.27-0.16c-0.03-0.23-0.06-0.47-0.13-0.71c-0.71-2.48-0.38-5.2,0.9-7.78c2.11,1.66,3.93,2.65,5.63,2.65
			c0.48,0,0.94-0.08,1.4-0.24c2.75-0.97,3.68-4.5,4.22-7.82C28.97,9.99,28.23,8.96,27.14,8.78z"/>
	</defs>
	<clipPath id="SVGID_4_">
		<use xlink:href="#SVGID_3_"  style="overflow:visible;"/>
	</clipPath>
	<rect x="-4.81" y="-4.45" class="st1" width="38.63" height="55.71"/>
</g>
</svg>
