<?xml version="1.0" encoding="UTF-8"?>
<svg width="173px" height="218px" viewBox="0 0 173 218" version="1.1" xmlns="http://www.w3.org/2000/svg" xmlns:xlink="http://www.w3.org/1999/xlink">
    <!-- Generator: Sketch 54.1 (76490) - https://sketchapp.com -->
    <title>blue icon</title>
    <desc>Created with Sketch.</desc>
    <g id="Page-1" stroke="none" stroke-width="1" fill="none" fill-rule="evenodd">
        <g id="EVO-icon-B-tron-blue" transform="translate(-60.000000, -39.000000)" fill-rule="nonzero" stroke="#FFFFFF" stroke-width="5">
            <g id="blue-icon" transform="translate(60.000000, 40.000000)">
                <g id="Group">
                    <path d="M35.9702151,26.4907023 C24.699436,27.4002083 20.0371015,28.636529 15.2905232,31.5074682 C11.1649491,34.0027968 7.99255618,37.4415012 5.83715111,41.7544184 C3.3573025,46.7165398 2.5,51.4632107 2.5,62.7706269 L2.5,186.430933 C2.5,189.957183 3.17818539,193.450527 4.49760543,196.72063 C10.1804484,210.805214 26.2051137,217.61617 40.2896973,211.933327 L97.4396403,188.874488 C106.206862,185.337092 109.617942,183.395209 112.9107,180.364323 C115.817131,177.689041 117.925373,174.565028 119.31882,170.868709 C120.897488,166.681067 121.421986,162.791174 121.421986,153.337214 L121.421986,49.4036226 C121.421986,48.6654096 121.392261,47.9274959 121.332883,47.1916747 C120.111258,32.0530542 106.848658,20.7711003 91.7100379,21.9927254 L35.9702151,26.4907023 Z" id="Rectangle"></path>
                    <path d="M60.5092222,16.4907023 C49.2384431,17.4002083 44.5761086,18.636529 39.8295303,21.5074682 C35.7039562,24.0027968 32.5315633,27.4415012 30.3761582,31.7544184 C27.8963096,36.7165398 27.0390071,41.4632107 27.0390071,52.7706269 L27.0390071,176.430933 C27.0390071,179.957183 27.7171925,183.450527 29.0366125,186.72063 C34.7194555,200.805214 50.7441208,207.61617 64.8287044,201.933327 L121.978647,178.874488 C130.745869,175.337092 134.156949,173.395209 137.449708,170.364323 C140.356138,167.689041 142.46438,164.565028 143.857828,160.868709 C145.436495,156.681067 145.960993,152.791174 145.960993,143.337214 L145.960993,39.4036226 C145.960993,38.6654096 145.931268,37.9274959 145.87189,37.1916747 C144.650265,22.0530542 131.387666,10.7711003 116.249045,11.9927254 L60.5092222,16.4907023 Z" id="Rectangle"></path>
                    <path d="M85.0482293,6.49070228 C73.7774502,7.40020829 69.1151157,8.63652899 64.3685374,11.5074682 C60.2429633,14.0027968 57.0705704,17.4415012 54.9151653,21.7544184 C52.4353167,26.7165398 51.5780142,31.4632107 51.5780142,42.7706269 L51.5780142,166.430933 C51.5780142,169.957183 52.2561996,173.450527 53.5756196,176.72063 C59.2584625,190.805214 75.2831279,197.61617 89.3677115,191.933327 L146.517655,168.874488 C155.284876,165.337092 158.695956,163.395209 161.988715,160.364323 C164.895145,157.689041 167.003387,154.565028 168.396835,150.868709 C169.975502,146.681067 170.5,142.791174 170.5,133.337214 L170.5,29.4036226 C170.5,28.6654096 170.470275,27.9274959 170.410897,27.1916747 C169.189272,12.0530542 155.926673,0.771100315 140.788052,1.99272539 L85.0482293,6.49070228 Z" id="Rectangle"></path>
                </g>
            </g>
        </g>
    </g>
</svg>