<?xml version="1.0" encoding="utf-8"?>
<!-- Generator: Adobe Illustrator 23.0.1, SVG Export Plug-In . SVG Version: 6.00 Build 0)  -->
<svg version="1.1" id="Layer_1" xmlns="http://www.w3.org/2000/svg" xmlns:xlink="http://www.w3.org/1999/xlink" x="0px" y="0px"
	 viewBox="0 0 52 46" style="enable-background:new 0 0 52 46;" xml:space="preserve">
<style type="text/css">
	.st0{clip-path:url(#SVGID_2_);fill:#FFFFFF;}
	.st1{clip-path:url(#SVGID_4_);fill:#FFFFFF;}
	.st2{clip-path:url(#SVGID_6_);fill:#FFFFFF;}
	.st3{clip-path:url(#SVGID_8_);fill:#FFFFFF;}
	.st4{clip-path:url(#SVGID_10_);fill:#FFFFFF;}
	.st5{clip-path:url(#SVGID_12_);fill:#FFFFFF;}
	.st6{clip-path:url(#SVGID_14_);fill:#FFFFFF;}
	.st7{clip-path:url(#SVGID_16_);fill:#FFFFFF;}
	.st8{clip-path:url(#SVGID_18_);fill:#FFFFFF;}
</style>
<g>
	<defs>
		<path id="SVGID_1_" d="M14,3.5c-1.7,0-3,1.3-3,2.9c0,1.6,1.3,2.9,3,2.9s3-1.3,3-2.9C17,4.8,15.7,3.5,14,3.5z M14,12.4
			c-3.3,0-6-2.7-6-5.9c0-3.3,2.7-5.9,6-5.9s6,2.7,6,5.9S17.3,12.4,14,12.4z"/>
	</defs>
	<clipPath id="SVGID_2_">
		<use xlink:href="#SVGID_1_"  style="overflow:visible;"/>
	</clipPath>
	<rect x="3" y="-4.4" class="st0" width="22" height="21.8"/>
</g>
<g>
	<defs>
		<path id="SVGID_3_" d="M9.5,7.8H2c-0.8,0-1.5-0.7-1.5-1.5S1.2,4.8,2,4.8h7.5c0.8,0,1.5,0.7,1.5,1.5S10.3,7.8,9.5,7.8z"/>
	</defs>
	<clipPath id="SVGID_4_">
		<use xlink:href="#SVGID_3_"  style="overflow:visible;"/>
	</clipPath>
	<rect x="-4.5" y="-0.2" class="st1" width="20.5" height="13"/>
</g>
<g>
	<defs>
		<path id="SVGID_5_" d="M50,7.8H18.5c-0.8,0-1.5-0.7-1.5-1.5s0.7-1.5,1.5-1.5H50c0.8,0,1.5,0.7,1.5,1.5S50.8,7.8,50,7.8z"/>
	</defs>
	<clipPath id="SVGID_6_">
		<use xlink:href="#SVGID_5_"  style="overflow:visible;"/>
	</clipPath>
	<rect x="12" y="-0.2" class="st2" width="44.5" height="13"/>
</g>
<g>
	<defs>
		<path id="SVGID_7_" d="M41,20.1c-1.7,0-3,1.3-3,2.9s1.3,2.9,3,2.9s3-1.3,3-2.9S42.7,20.1,41,20.1z M41,28.9c-3.3,0-6-2.7-6-5.9
			c0-3.3,2.7-5.9,6-5.9s6,2.7,6,5.9C47,26.3,44.3,28.9,41,28.9z"/>
	</defs>
	<clipPath id="SVGID_8_">
		<use xlink:href="#SVGID_7_"  style="overflow:visible;"/>
	</clipPath>
	<rect x="30" y="12.1" class="st3" width="22" height="21.8"/>
</g>
<g>
	<defs>
		<path id="SVGID_9_" d="M36.5,24.4H2c-0.8,0-1.5-0.7-1.5-1.5c0-0.8,0.7-1.5,1.5-1.5h34.5c0.8,0,1.5,0.7,1.5,1.5
			C38,23.7,37.3,24.4,36.5,24.4z"/>
	</defs>
	<clipPath id="SVGID_10_">
		<use xlink:href="#SVGID_9_"  style="overflow:visible;"/>
	</clipPath>
	<rect x="-4.5" y="16.4" class="st4" width="47.5" height="13"/>
</g>
<g>
	<defs>
		<path id="SVGID_11_" d="M50,24.4h-4.5c-0.8,0-1.5-0.7-1.5-1.5c0-0.8,0.7-1.5,1.5-1.5H50c0.8,0,1.5,0.7,1.5,1.5
			C51.5,23.7,50.8,24.4,50,24.4z"/>
	</defs>
	<clipPath id="SVGID_12_">
		<use xlink:href="#SVGID_11_"  style="overflow:visible;"/>
	</clipPath>
	<rect x="39" y="16.4" class="st5" width="17.5" height="13"/>
</g>
<g>
	<defs>
		<path id="SVGID_13_" d="M21.9,36.7c-1.7,0-3,1.3-3,2.9c0,1.6,1.3,2.9,3,2.9c1.7,0,3-1.3,3-2.9C24.9,38,23.5,36.7,21.9,36.7z
			 M21.9,45.5c-3.3,0-6-2.7-6-5.9c0-3.2,2.7-5.9,6-5.9s6,2.7,6,5.9C27.9,42.8,25.2,45.5,21.9,45.5z"/>
	</defs>
	<clipPath id="SVGID_14_">
		<use xlink:href="#SVGID_13_"  style="overflow:visible;"/>
	</clipPath>
	<rect x="10.9" y="28.7" class="st6" width="22" height="21.8"/>
</g>
<g>
	<defs>
		<path id="SVGID_15_" d="M17.4,41H2c-0.8,0-1.5-0.7-1.5-1.5S1.2,38,2,38h15.4c0.8,0,1.5,0.7,1.5,1.5S18.2,41,17.4,41z"/>
	</defs>
	<clipPath id="SVGID_16_">
		<use xlink:href="#SVGID_15_"  style="overflow:visible;"/>
	</clipPath>
	<rect x="-4.5" y="33" class="st7" width="28.4" height="13"/>
</g>
<g>
	<defs>
		<path id="SVGID_17_" d="M50,41H26.4c-0.8,0-1.5-0.7-1.5-1.5s0.7-1.5,1.5-1.5H50c0.8,0,1.5,0.7,1.5,1.5S50.8,41,50,41z"/>
	</defs>
	<clipPath id="SVGID_18_">
		<use xlink:href="#SVGID_17_"  style="overflow:visible;"/>
	</clipPath>
	<rect x="19.9" y="33" class="st8" width="36.6" height="13"/>
</g>
</svg>
