<?xml version="1.0" encoding="UTF-8"?>
<svg width="100px" height="108px" viewBox="0 0 100 108" version="1.1" xmlns="http://www.w3.org/2000/svg" xmlns:xlink="http://www.w3.org/1999/xlink">
    <!-- Generator: Sketch 54.1 (76490) - https://sketchapp.com -->
    <title>gear icon 2 white</title>
    <desc>Created with Sketch.</desc>
    <g id="Page-1" stroke="none" stroke-width="1" fill="none" fill-rule="evenodd">
        <path d="M100,18.0491671 C84.2300087,18.0491671 63.4741622,13.477535 50.0164424,0.0328848902 L50.0164424,7.1065244e-15 C50.0101184,0.00653481793 50.003162,0.0132804364 49.9966272,0.0132804364 C49.9966272,0.0132804364 49.9900924,0.00674561851 49.9833468,7.10542736e-15 L49.9833468,0.0328848902 C36.5323726,13.477535 15.7695697,18.0491671 0,18.0491671 C0,56.630943 23.3581797,90.3447011 49.9835576,107.899541 L49.9835576,107.925891 C49.9898816,107.919356 49.996838,107.912611 49.996838,107.912611 C50.0033728,107.912611 50.0101184,107.919145 50.0166532,107.925891 L50.0166532,107.899541 C76.6485659,90.3447011 100,56.630943 100,18.0491671 Z" id="gear-icon-2-white" fill="#FFFFFF" fill-rule="nonzero"></path>
    </g>
</svg>