<?xml version="1.0" encoding="UTF-8"?>
<svg width="89px" height="89px" viewBox="0 0 89 89" version="1.1" xmlns="http://www.w3.org/2000/svg" xmlns:xlink="http://www.w3.org/1999/xlink">
    <!-- Generator: Sketch 54.1 (76490) - https://sketchapp.com -->
    <title>Group 6</title>
    <desc>Created with Sketch.</desc>
    <defs>
        <path d="M37.504,9.044 C37.226,4.02 33.044,0 27.954,0 L27.954,0 C22.684,0 18.382,4.302 18.382,9.571 L18.382,9.571 C18.382,12.044 19.344,14.277 20.905,15.956 L20.905,15.956 L1.597,15.956 C0.715,15.954 0,16.67 0,17.552 L0,17.552 L0,31.913 C0,32.794 0.715,33.51 1.597,33.509 L1.597,33.509 L73.404,33.509 C74.286,33.509 75,32.794 75,31.913 L75,31.913 L75,17.552 C75,16.67 74.286,15.956 73.404,15.956 L73.404,15.956 L54.101,15.956 C55.662,14.277 56.624,12.045 56.624,9.571 L56.624,9.571 C56.624,4.302 52.316,0 47.047,0 L47.047,0 C41.956,0 37.781,4.02 37.504,9.044 L37.504,9.044 Z M40.663,9.565 C40.666,6.024 43.505,3.193 47.047,3.193 L47.047,3.193 C50.591,3.193 53.432,6.027 53.432,9.571 L53.432,9.571 C53.431,13.104 50.608,15.94 47.076,15.956 L47.076,15.956 L47.07,15.956 L40.686,15.956 L40.663,9.565 Z M21.574,9.571 C21.574,6.027 24.408,3.193 27.954,3.193 L27.954,3.193 C31.497,3.193 34.337,6.027 34.337,9.571 L34.337,9.571 L34.314,15.956 L28.042,15.956 L27.936,15.956 L27.93,15.956 L27.928,15.956 C24.397,15.94 21.575,13.103 21.574,9.571 L21.574,9.571 Z M3.99399895,36.7 L3.994,73.402 C3.993,74.284 4.708,75 5.589,75 L5.589,75 L69.417,75 C70.299,75 71.013,74.284 71.013,73.402 L71.013,73.402 L71.013,36.7 L3.99399895,36.7 Z" id="path-1"></path>
    </defs>
    <g id="Page-1" stroke="none" stroke-width="1" fill="none" fill-rule="evenodd">
        <g id="Group-6" transform="translate(7.000000, 7.000000)">
            <g id="Group-3">
                <mask id="mask-2" fill="white">
                    <use xlink:href="#path-1"></use>
                </mask>
                <use id="Clip-2" stroke="#FFFFFF" stroke-width="13" xlink:href="#path-1"></use>
                <polygon id="Fill-1" fill="#ED5179" mask="url(#mask-2)" points="-5 80 80 80 80 -5 -5 -5"></polygon>
            </g>
            <polygon id="Fill-4" fill="#FFD300" points="27.9301 39.8915 27.9281 71.8065 47.0761 71.8065 47.0761 39.8915"></polygon>
            <polygon id="Fill-5" fill="#FFD300" points="27.9301 19.1474 27.9281 19.1474 27.9301 30.3134 47.0761 30.3134 47.0761 19.1474"></polygon>
        </g>
    </g>
</svg>