<?xml version="1.0" encoding="UTF-8"?>
<svg width="32px" height="52px" viewBox="0 0 32 52" version="1.1" xmlns="http://www.w3.org/2000/svg" xmlns:xlink="http://www.w3.org/1999/xlink">
    <!-- Generator: Sketch 54.1 (76490) - https://sketchapp.com -->
    <title>hand</title>
    <desc>Created with Sketch.</desc>
    <g id="Page-1" stroke="none" stroke-width="1" fill="none" fill-rule="evenodd">
        <g id="hand" fill="#FFFFFF" fill-rule="nonzero">
            <path d="M28,10 C27.3,10 26.6,10.2 26,10.6 L26,8 C26,5.8 24.2,4 22,4 C21.3,4 20.6,4.2 20,4.6 L20,4 C20,1.8 18.2,0 16,0 C13.8,0 12,1.8 12,4 L12,6.6 C11.4,6.3 10.7,6 10,6 C7.8,6 6,7.8 6,10 L6,21 C5.2,20.4 4.1,20 3,20 C1.3,20 0,21.3 0,23 L0,36 C0,44.8 7.2,52 16,52 C24.8,52 32,44.8 32,36 L32,14 C32,11.8 30.2,10 28,10 Z M30,36 C30,43.7 23.7,50 16,50 C8.3,50 2,43.7 2,36 L2,23 C2,22.4 2.4,22 3,22 C4.7,22 6,23.3 6,25 L6,27 L6,34 C6,34.6 6.4,35 7,35 C11.4,35 15,38.6 15,43 C15,43.6 15.4,44 16,44 C16.6,44 17,43.6 17,43 C17,37.8 13,33.6 8,33 L8,27 L8,25 L8,10 C8,8.9 8.9,8 10,8 C11.1,8 12,8.9 12,10 L12,11 L12,25 C12,25.6 12.4,26 13,26 C13.6,26 14,25.6 14,25 L14,11 L14,10 L14,4 C14,2.9 14.9,2 16,2 C17.1,2 18,2.9 18,4 L18,8 L18,10 L18,25 C18,25.6 18.4,26 19,26 C19.6,26 20,25.6 20,25 L20,10 L20,8 C20,6.9 20.9,6 22,6 C23.1,6 24,6.9 24,8 L24,25 C24,25.6 24.4,26 25,26 C25.6,26 26,25.6 26,25 L26,14 C26,12.9 26.9,12 28,12 C29.1,12 30,12.9 30,14 L30,36 Z" id="Shape"></path>
        </g>
    </g>
</svg>