<?xml version="1.0" encoding="UTF-8"?>
<svg width="100px" height="85px" viewBox="0 0 100 85" version="1.1" xmlns="http://www.w3.org/2000/svg" xmlns:xlink="http://www.w3.org/1999/xlink">
    <!-- Generator: Sketch 54.1 (76490) - https://sketchapp.com -->
    <title>heat</title>
    <desc>Created with Sketch.</desc>
    <defs>
        <path d="M49.987,14.861 C54.342,6.487 63.246,0.736 73.551,0.736 C88.145,0.736 99.973,12.246 99.973,26.443 C99.973,26.443 100,26.715 100,27.234 C100,32.033 97.671,57.923 50.019,84.982 L50.015,84.999 C50.011,84.997 50.005,84.994 50.001,84.99 C49.998,84.994 49.991,84.997 49.987,84.999 L49.984,84.982 C2.323,57.917 0.001,32.026 0.002,27.236 C0.002,27.001 0.007,26.816 0.014,26.685 C0.012,26.603 0,26.525 0,26.443 C0,12.246 11.829,0.736 26.421,0.736 C36.727,0.736 45.63,6.487 49.987,14.861 Z" id="path-1"></path>
        <linearGradient x1="0.115098645%" y1="0.000389371499%" x2="0.115098645%" y2="1215.22872%" id="linearGradient-3">
            <stop stop-color="#FFA6D8" offset="0%"></stop>
            <stop stop-color="#FFA6D8" offset="100%"></stop>
        </linearGradient>
        <path d="M49.987,14.861 C45.63,6.487 36.727,0.736 26.421,0.736 L26.421,0.736 C11.829,0.736 0,12.246 0,26.443 L0,26.443 C0,26.525 0.012,26.603 0.014,26.685 L0.014,26.685 C0.007,26.816 0.002,27.001 0.002,27.236 L0.002,27.236 C0.001,32.025 2.323,57.917 49.984,84.982 L49.984,84.982 L49.987,84.999 C49.991,84.997 49.998,84.994 50.001,84.99 L50.001,84.99 C50.005,84.994 50.011,84.997 50.015,84.999 L50.015,84.999 L50.019,84.982 C97.671,57.923 100,32.033 100,27.235 L100,27.235 C100,26.715 99.973,26.443 99.973,26.443 L99.973,26.443 C99.973,12.246 88.145,0.736 73.551,0.736 L73.551,0.736 C63.246,0.736 54.342,6.487 49.987,14.861" id="path-4"></path>
        <linearGradient x1="50.0005883%" y1="0.00038937612%" x2="50.0005883%" y2="100.001576%" id="linearGradient-6">
            <stop stop-color="#FFA6D8" offset="0%"></stop>
            <stop stop-color="#FFA6D8" offset="100%"></stop>
        </linearGradient>
        <path d="M49.987,14.861 C45.63,6.487 36.727,0.736 26.421,0.736 L26.421,0.736 C11.829,0.736 0,12.246 0,26.443 L0,26.443 C0,26.525 0.012,26.603 0.014,26.685 L0.014,26.685 C-0.118,29.482 -0.021,56.586 49.984,84.982 L49.984,84.982 L49.987,84.999 C49.991,84.997 49.998,84.994 50.001,84.99 L50.001,84.99 C50.005,84.994 50.011,84.997 50.015,84.999 L50.015,84.999 L50.019,84.982 C102.828,54.994 99.973,26.443 99.973,26.443 L99.973,26.443 C99.973,12.246 88.145,0.736 73.551,0.736 L73.551,0.736 C63.246,0.736 54.342,6.487 49.987,14.861 L49.987,14.861 Z" id="path-7"></path>
        <filter x="-20.5%" y="-24.3%" width="141.0%" height="148.7%" filterUnits="objectBoundingBox" id="filter-9">
            <feGaussianBlur stdDeviation="13" in="SourceAlpha" result="shadowBlurInner1"></feGaussianBlur>
            <feOffset dx="15" dy="-7" in="shadowBlurInner1" result="shadowOffsetInner1"></feOffset>
            <feComposite in="shadowOffsetInner1" in2="SourceAlpha" operator="arithmetic" k2="-1" k3="1" result="shadowInnerInner1"></feComposite>
            <feColorMatrix values="0 0 0 0 0   0 0 0 0 0   0 0 0 0 0  0 0 0 0.5 0" type="matrix" in="shadowInnerInner1"></feColorMatrix>
        </filter>
    </defs>
    <g id="Page-1" stroke="none" stroke-width="1" fill="none" fill-rule="evenodd">
        <g id="heat" transform="translate(0.000000, -1.000000)">
            <g id="Group-3" transform="translate(0.000000, 0.264000)">
                <mask id="mask-2" fill="white">
                    <use xlink:href="#path-1"></use>
                </mask>
                <g id="Clip-2"></g>
                <polygon id="Fill-1" fill="url(#linearGradient-3)" mask="url(#mask-2)" points="-0.118 85 102.827 85 102.827 0.736 -0.118 0.736"></polygon>
            </g>
            <g id="Group-6" transform="translate(0.000000, 0.264000)">
                <mask id="mask-5" fill="white">
                    <use xlink:href="#path-4"></use>
                </mask>
                <g id="Clip-5"></g>
                <path d="M49.987,14.861 C45.63,6.487 36.727,0.736 26.421,0.736 L26.421,0.736 C11.829,0.736 0,12.246 0,26.443 L0,26.443 C0,26.525 0.012,26.603 0.014,26.685 L0.014,26.685 C0.007,26.816 0.002,27.001 0.002,27.236 L0.002,27.236 C0.001,32.025 2.323,57.917 49.984,84.982 L49.984,84.982 L49.987,84.999 C49.991,84.997 49.998,84.994 50.001,84.99 L50.001,84.99 C50.005,84.994 50.011,84.997 50.015,84.999 L50.015,84.999 L50.019,84.982 C97.671,57.923 100,32.033 100,27.235 L100,27.235 C100,26.715 99.973,26.443 99.973,26.443 L99.973,26.443 C99.973,12.246 88.145,0.736 73.551,0.736 L73.551,0.736 C63.246,0.736 54.342,6.487 49.987,14.861" id="Fill-4" fill="url(#linearGradient-6)" mask="url(#mask-5)"></path>
            </g>
            <g id="Group-10" transform="translate(0.000000, 0.264000)">
                <mask id="mask-8" fill="white">
                    <use xlink:href="#path-7"></use>
                </mask>
                <g id="Clip-9" fill="black" fill-opacity="1">
                    <use filter="url(#filter-9)" xlink:href="#path-7"></use>
                </g>
                <path d="M99.973,26.443 C99.973,12.246 88.145,0.736 73.551,0.736 C63.245,0.736 54.342,6.487 49.987,14.861 C45.63,6.487 36.727,0.736 26.421,0.736 C11.828,0.736 0,12.246 0,26.443 C0,26.525 0.012,26.603 0.014,26.685 C-0.118,29.482 -0.021,56.586 49.984,84.982 L49.987,85 C49.992,84.997 49.997,84.994 50.001,84.991 C50.005,84.994 50.011,84.997 50.015,85 L50.02,84.982 C102.827,54.995 99.973,26.443 99.973,26.443 Z" id="Stroke-8" stroke="#31323D" stroke-width="8" mask="url(#mask-8)"></path>
            </g>
        </g>
    </g>
</svg>