<?xml version="1.0" encoding="UTF-8"?>
<svg width="100px" height="92px" viewBox="0 0 100 92" version="1.1" xmlns="http://www.w3.org/2000/svg" xmlns:xlink="http://www.w3.org/1999/xlink">
    <!-- Generator: Sketch 54.1 (76490) - https://sketchapp.com -->
    <title>heart</title>
    <desc>Created with Sketch.</desc>
    <g id="Page-1" stroke="none" stroke-width="1" fill="none" fill-rule="evenodd">
        <path d="M71.17,0.807 C63.035,0.807 55.441,4.152 50,10.058 C44.56,4.152 36.963,0.807 28.828,0.807 C12.932,0.807 0,13.74 0,29.637 C0,62.412 50.002,91.193 50.002,91.193 C50.002,91.193 100,62.656 100,29.637 C100,13.74 87.066,0.807 71.17,0.807 Z M50,85.241 C47.051,83.397 5.498,57.326 5.498,30.09 C5.498,20.115 12.742,6.758 28.828,6.758 C43.575,6.758 50,19.874 50,19.874 C50,19.874 56.773,6.758 71.17,6.758 C84.035,6.758 94.502,17.225 94.502,30.09 C94.502,41.966 85.627,62.392 50,85.241 Z" id="heart" fill="#FFFFFF" fill-rule="nonzero"></path>
    </g>
</svg>