<?xml version="1.0" encoding="UTF-8"?>
<svg width="85px" height="78px" viewBox="0 0 85 78" version="1.1" xmlns="http://www.w3.org/2000/svg" xmlns:xlink="http://www.w3.org/1999/xlink">
    <!-- Generator: Sketch 54.1 (76490) - https://sketchapp.com -->
    <title>hero icon white</title>
    <desc>Created with Sketch.</desc>
    <g id="Page-1" stroke="none" stroke-width="1" fill="none" fill-rule="evenodd">
        <g id="hero-icon-white" fill="#FFFFFF" fill-rule="nonzero">
            <path d="M1.76,6.569 C1.23,6.009 0.917,5.332 0.823,4.537 C0.694,3.558 0.938,2.678 1.555,1.898 C2.169,1.128 2.966,0.69 3.943,0.582 C4.92,0.452 5.794,0.695 6.563,1.31 C6.691,1.418 6.814,1.525 6.93,1.633 L26.494,22.25 C28.957,21.253 30.953,20.813 32.481,20.927 L32.509,20.977 L44.118,21.817 C45.722,22.141 46.874,23.036 47.572,24.505 L56.594,37.919 C56.912,38.363 57.112,38.887 57.192,39.489 C57.3,40.465 57.053,41.339 56.45,42.11 C55.854,42.892 55.066,43.341 54.089,43.46 C53.093,43.566 52.208,43.322 51.437,42.728 C51.129,42.488 50.875,42.214 50.67,41.908 L41.823,28.829 L37.125,28.492 L45.601,42.619 C46.775,44.79 47.622,46.798 48.147,48.641 C49.253,51.828 50.71,53.826 52.511,54.635 C55.419,55.21 59.377,53.279 64.389,48.843 L64.404,48.86 C64.473,48.803 64.547,48.747 64.627,48.689 C65.418,48.097 66.304,47.874 67.287,48.02 C68.253,48.145 69.033,48.601 69.625,49.392 C70.219,50.18 70.441,51.067 70.294,52.052 C70.158,52.909 69.776,53.631 69.147,54.219 C61.491,60.993 54.9,63.306 49.373,61.153 C45.821,58.909 42.967,56.062 40.809,52.608 C37.484,59.648 39.211,65.948 45.995,71.501 C46.16,71.654 46.319,71.822 46.471,72.01 C46.94,72.574 47.205,73.208 47.27,73.907 C47.293,74.132 47.294,74.363 47.276,74.6 C47.18,75.59 46.754,76.399 45.991,77.026 C45.242,77.644 44.374,77.907 43.385,77.812 C42.649,77.742 42.01,77.485 41.467,77.041 L41.45,77.054 C40.208,76.031 39.082,74.972 38.074,73.88 C37.876,73.665 37.683,73.446 37.491,73.228 C31.18,65.952 29.991,57.223 33.92,47.044 L23.556,31.972 L20.51,26.361 L1.759,6.585 L1.76,6.569 Z" id="Path"></path>
            <path d="M23.319,6.975 C24.627,5.295 26.339,4.333 28.454,4.09 C30.559,3.845 32.445,4.382 34.114,5.699 C35.784,7.005 36.74,8.716 36.984,10.83 C37.239,12.926 36.709,14.813 35.392,16.492 C34.084,18.161 32.379,19.123 30.272,19.379 C28.169,19.613 26.282,19.082 24.611,17.786 C24.168,17.425 23.778,17.048 23.445,16.655 C22.928,16.064 22.534,15.415 22.261,14.71 C21.993,14.068 21.821,13.377 21.742,12.638 C21.477,10.531 22.002,8.644 23.319,6.975 Z" id="Path"></path>
            <path d="M63.183,47.469 C58.973,51.198 55.664,52.977 53.26,52.812 C52.057,52.059 51.046,50.535 50.224,48.238 C49.829,46.833 49.861,45.571 50.317,44.455 C51.521,45.387 52.898,45.775 54.442,45.614 L54.473,45.617 C56.01,45.425 57.251,44.71 58.198,43.472 L58.179,43.503 C59.124,42.298 59.509,40.934 59.335,39.408 C59.325,39.396 59.322,39.38 59.323,39.359 C59.201,38.423 58.894,37.614 58.41,36.93 C58.39,36.907 58.376,36.889 58.367,36.877 L52.566,28.247 C53.599,28.877 54.573,29.475 55.485,30.039 C58.835,32.09 61.361,33.66 63.062,34.746 C72.658,40.878 79.973,46.633 85,52.009 L84.969,52.325 C83.053,51.822 81.092,51.794 79.085,52.239 C76.678,52.763 75.352,53.858 75.108,55.522 C74.767,57.964 74.337,59.696 73.815,60.719 C72.952,62.399 71.606,63.15 69.775,62.975 C69.512,62.95 68.548,62.751 66.885,62.38 C65.222,62.01 64.257,61.811 63.995,61.786 C63.395,61.727 62.843,61.724 62.341,61.77 C64.966,60.397 67.725,58.431 70.612,55.871 C70.624,55.862 70.641,55.854 70.664,55.845 C71.632,54.94 72.221,53.828 72.431,52.512 L72.432,52.495 C72.657,50.944 72.301,49.552 71.369,48.314 C70.434,47.08 69.222,46.363 67.721,46.166 C66.182,45.934 64.794,46.285 63.558,47.218 L63.595,47.174 C63.572,47.193 63.548,47.212 63.526,47.231 C63.4,47.294 63.288,47.372 63.183,47.469 Z" id="Path"></path>
        </g>
    </g>
</svg>