<?xml version="1.0" encoding="utf-8"?>
<!-- Generator: Adobe Illustrator 23.0.1, SVG Export Plug-In . SVG Version: 6.00 Build 0)  -->
<svg version="1.1" id="Layer_1" xmlns="http://www.w3.org/2000/svg" xmlns:xlink="http://www.w3.org/1999/xlink" x="0px" y="0px"
	 viewBox="0 0 50 50" style="enable-background:new 0 0 50 50;" xml:space="preserve">
<style type="text/css">
	.st0{clip-path:url(#SVGID_2_);fill:#FFFFFF;}
</style>
<g>
	<defs>
		<path id="SVGID_1_" d="M31.4,37.35l-8.73,8.75c-5.19,5.19-13.6,5.19-18.78,0c-5.19-5.18-5.18-13.59,0-18.78l9.39-9.39
			c0.81-0.8,1.7-1.47,2.64-2.02c3.1-1.84,6.78-2.31,10.19-1.4c2.18,0.58,4.24,1.72,5.96,3.43c1.16,1.16,2.03,2.49,2.66,3.89
			l-4.11,4.11c-0.4,0.4-0.87,0.7-1.36,0.93c-0.1-1.54-0.72-3.05-1.89-4.23c-1.75-1.74-4.2-2.28-6.41-1.69
			c-1.09,0.29-2.12,0.83-2.97,1.68l-9.39,9.39c-2.58,2.6-2.59,6.79,0,9.39c2.59,2.59,6.8,2.59,9.39,0l4.35-4.35
			C25.25,38.07,28.43,38.18,31.4,37.35z M27.33,3.89c5.19-5.19,13.59-5.18,18.79,0c5.17,5.18,5.18,13.59-0.01,18.78l-9.39,9.39
			c-0.81,0.81-1.7,1.47-2.63,2.03c-3.1,1.84-6.78,2.31-10.19,1.4c-2.18-0.58-4.25-1.72-5.96-3.43c-1.16-1.16-2.04-2.49-2.68-3.9
			l4.11-4.11c0.38-0.38,0.86-0.66,1.37-0.88c0.1,1.53,0.72,3.03,1.9,4.2c1.74,1.74,4.19,2.28,6.41,1.69
			c1.09-0.29,2.13-0.84,2.98-1.69l3.46-3.46l5.93-5.93c2.59-2.6,2.59-6.78,0-9.39c-2.6-2.59-6.8-2.59-9.39,0l-4.36,4.36
			c-0.35-0.12-0.7-0.26-1.06-0.35c-2.65-0.71-5.44-0.66-8.05,0.07L27.33,3.89z"/>
	</defs>
	<clipPath id="SVGID_2_">
		<use xlink:href="#SVGID_1_"  style="overflow:visible;"/>
	</clipPath>
	<rect x="-5" y="-5" class="st0" width="60" height="60"/>
</g>
</svg>
