<?xml version="1.0" encoding="UTF-8"?>
<svg width="66px" height="66px" viewBox="0 0 66 66" version="1.1" xmlns="http://www.w3.org/2000/svg" xmlns:xlink="http://www.w3.org/1999/xlink">
    <!-- Generator: Sketch 54.1 (76490) - https://sketchapp.com -->
    <title>male icon white</title>
    <desc>Created with Sketch.</desc>
    <g id="Page-1" stroke="none" stroke-width="1" fill="none" fill-rule="evenodd">
        <path d="M46.999999,-2.99999999e-05 C45.343138,-2.99999999e-05 43.999998,1.34312 43.999999,2.99997 C43.999998,4.65683 45.343138,5.99997 46.999999,5.99997 L55.750001,5.99997 L43.812499,17.93743 C39.191679,14.23993 33.357928,11.99993 26.999999,11.99993 C12.123829,11.99993 -9.99999997e-07,24.12393 -9.99999997e-07,38.99992 C-9.99999997e-07,53.87602 12.123829,66.00002 26.999999,66.00002 C41.876159,66.00002 53.999999,53.87602 53.999999,38.99992 C53.999999,32.63342 51.769138,26.78003 48.062499,22.15623 L60.000001,10.21873 L60.000001,18.99993 C60.000001,20.65683 61.343151,21.99993 63.000001,21.99993 C64.656861,21.99993 66.000001,20.65683 66.000001,18.99993 L65.999999,2.99997 C65.9998353,1.34318437 64.6567866,0.000135653716 62.999999,-2.99999999e-05 L46.999999,-2.99999999e-05 L46.999999,-2.99999999e-05 Z M26.999998,17.99993 C38.633478,17.99993 47.999998,27.36663 47.999998,38.99993 C47.999998,50.63332 38.633478,60.00002 26.999998,60.00002 C15.366508,60.00002 5.999998,50.63332 5.999998,38.99993 C5.999998,27.36663 15.366508,17.99993 26.999998,17.99993 Z" id="male-icon-white" fill="#FFFFFF" fill-rule="nonzero"></path>
    </g>
</svg>