<?xml version="1.0" encoding="UTF-8"?>
<svg width="210px" height="210px" viewBox="0 0 210 210" version="1.1" xmlns="http://www.w3.org/2000/svg" xmlns:xlink="http://www.w3.org/1999/xlink">
    <!-- Generator: Sketch 54.1 (76490) - https://sketchapp.com -->
    <title>opened egg icon with bg</title>
    <desc>Created with Sketch.</desc>
    <defs>
        <filter x="-16.7%" y="-10.2%" width="133.3%" height="120.3%" filterUnits="objectBoundingBox" id="filter-1">
            <feOffset dx="0" dy="2" in="SourceAlpha" result="shadowOffsetOuter1"></feOffset>
            <feGaussianBlur stdDeviation="2" in="shadowOffsetOuter1" result="shadowBlurOuter1"></feGaussianBlur>
            <feColorMatrix values="0 0 0 0 0   0 0 0 0 0   0 0 0 0 0  0 0 0 0.496831294 0" type="matrix" in="shadowBlurOuter1" result="shadowMatrixOuter1"></feColorMatrix>
            <feMerge>
                <feMergeNode in="shadowMatrixOuter1"></feMergeNode>
                <feMergeNode in="SourceGraphic"></feMergeNode>
            </feMerge>
        </filter>
        <linearGradient x1="66.5783606%" y1="12.2772191%" x2="19.5645321%" y2="93.1282656%" id="linearGradient-2">
            <stop stop-color="#6CFFA0" offset="0%"></stop>
            <stop stop-color="#25E2BC" offset="100%"></stop>
        </linearGradient>
        <linearGradient x1="66.5783606%" y1="17.9440912%" x2="19.5645321%" y2="86.6493593%" id="linearGradient-3">
            <stop stop-color="#6CFFA0" offset="0%"></stop>
            <stop stop-color="#25E2BC" offset="100%"></stop>
        </linearGradient>
    </defs>
    <g id="opened-egg-icon-with-bg" stroke="none" stroke-width="1" fill="none" fill-rule="evenodd">
        <rect fill="#D3F4E6" x="0" y="0" width="210" height="210"></rect>
        <g id="open-egg" filter="url(#filter-1)" transform="translate(69.000000, 46.000000)" fill-rule="nonzero">
            <path d="M4.54007372,50.549625 C0.0992541017,29.0750897 5.46282302,9.91523535 18.0425466,4.50663116 C20.3685552,3.50701163 22.904344,3 25.5790413,3 C37.09002,3 50.3316851,12.232797 60,26.7848951 L55.1594641,25.5605772 L54.9822849,33.7692684 L41.5081606,31.8622133 L40.8207053,39.8159583 L31.4415469,37.9665181 L28.9397765,46.343733 L17.030499,41.9016197 L14.9454541,56 L5.55070391,44.6023209 L4.54007372,50.549625 Z" id="Path" fill="url(#linearGradient-2)"></path>
            <path d="M37.5014142,115 C18.6588388,115 6,97.6006033 6,71.7036939 C6,70.5977456 6.0297023,69.4346423 6.09052131,68.0714966 L9.01124779,63.480525 L13.3803152,77.8992909 L23.3532171,61.4400931 L31.9697138,69.5832451 L37.9879662,62.2859865 L46.7869199,68.2629657 L50.6015443,61 L62.5701581,68.2272439 L65.6054506,61.3986558 L68.5968968,63.6677075 C68.8642176,66.368279 68.9999995,69.0674217 68.9999995,71.7051228 C69.0028283,97.6006033 56.3425752,115 37.5014142,115 Z" id="Path" fill="url(#linearGradient-3)"></path>
            <path d="M71.5132685,62.4968293 L71.4461836,61.8751707 L64.576404,56.6730976 L61.36632,63.8840488 L49.4637454,56.7148293 L45.6912901,63.8811707 L37.3042498,58.1970244 L31.5178201,65.1993171 L22.4742042,56.6673415 L13.8901912,70.802878 L9.53538186,56.4572439 L5.01500125,63.545878 L7.1560088,51.0479512 L16.7320219,62.5730976 L19.2527015,45.6616829 L30.7955869,49.9341463 L33.4432995,41.1316341 L43.4717789,43.0944634 L44.1783114,34.9812439 L57.949272,36.9138537 L58.1191252,29.0783659 L66.3891237,31.153439 L64.576404,28.1602683 C54.2253462,11.0545854 38.9071508,0 25.5586824,0 C22.4813409,0 19.5538699,0.582804878 16.859055,1.73258537 C1.58367982,8.24704878 -4.25556145,32.3017805 3.27507578,57.6861707 L5.01500125,63.5501951 L2.84544693,66.9506098 L2.82689154,67.3362683 C2.74981526,68.9249512 2.7141318,70.2531707 2.7141318,71.5180732 C2.71270447,99.3214634 16.6363902,118 37.3570613,118 C58.0777324,118 71.9999908,99.3214634 71.9999908,71.5180732 C72.0014182,68.559439 71.8358469,65.5230976 71.5132685,62.4968293 Z M4.37269899,50.383122 C-0.0991521184,28.9287073 5.30189627,9.78680488 17.9695243,4.38326829 C20.3117865,3.38458537 22.8652949,2.87804878 25.5586824,2.87804878 C37.1500973,2.87804878 50.4842923,12.1021951 60.2201673,26.6406585 L55.3458068,25.4174878 L55.1673895,33.6184878 L41.599111,31.7132195 L40.9068518,39.6595122 L31.4621539,37.8118049 L28.9429016,46.1811707 L16.9504047,41.7432195 L14.8507899,55.8283902 L5.39039124,44.4413902 L4.37269899,50.383122 Z M37.3570613,115.121951 C18.3420596,115.121951 5.5673812,97.5989512 5.5673812,71.5180732 C5.5673812,70.4042683 5.59735531,69.2329024 5.65873086,67.8600732 L8.60618459,63.2364878 L13.0152328,77.7576829 L23.0793956,61.181561 L31.774741,69.382561 L37.8480657,62.0334634 L46.7275377,68.0529024 L50.5770693,60.7383415 L62.6552066,68.0169268 L65.7182747,61.1398293 L68.7370953,63.425 C69.0068623,66.1447561 69.1438868,68.8630732 69.1438868,71.5195122 C69.1467415,97.5989512 56.3706357,115.121951 37.3570613,115.121951 Z" id="Shape" fill="#31323D"></path>
        </g>
    </g>
</svg>