<?xml version="1.0" encoding="UTF-8"?>
<svg width="210px" height="210px" viewBox="0 0 210 210" version="1.1" xmlns="http://www.w3.org/2000/svg" xmlns:xlink="http://www.w3.org/1999/xlink">
    <!-- Generator: Sketch 54.1 (76490) - https://sketchapp.com -->
    <title>open chest icon with bg</title>
    <desc>Created with Sketch.</desc>
    <defs>
        <filter x="-7.9%" y="-11.8%" width="115.9%" height="123.5%" filterUnits="objectBoundingBox" id="filter-1">
            <feOffset dx="0" dy="2" in="SourceAlpha" result="shadowOffsetOuter1"></feOffset>
            <feGaussianBlur stdDeviation="2" in="shadowOffsetOuter1" result="shadowBlurOuter1"></feGaussianBlur>
            <feColorMatrix values="0 0 0 0 0   0 0 0 0 0   0 0 0 0 0  0 0 0 0.496831294 0" type="matrix" in="shadowBlurOuter1" result="shadowMatrixOuter1"></feColorMatrix>
            <feMerge>
                <feMergeNode in="shadowMatrixOuter1"></feMergeNode>
                <feMergeNode in="SourceGraphic"></feMergeNode>
            </feMerge>
        </filter>
        <linearGradient x1="50%" y1="0%" x2="50%" y2="100%" id="linearGradient-2">
            <stop stop-color="#FFA07E" offset="0%"></stop>
            <stop stop-color="#F56333" offset="100%"></stop>
        </linearGradient>
    </defs>
    <g id="open-chest-icon-with-bg" stroke="none" stroke-width="1" fill="none" fill-rule="evenodd">
        <rect fill="#B9DBA4" x="0" y="0" width="210" height="210"></rect>
        <g id="open-chest" filter="url(#filter-1)" transform="translate(23.000000, 54.000000)">
            <path d="M28.8582677,48.7115789 C31.5761155,46.2189474 34.7946194,43.9957895 38.3707349,42.1094737 L28.5006562,26.4126316 C28.2145669,26.0084211 28,25.4694737 28,24.9305263 C28,20.1473684 29.3589239,15.9031579 32.2198163,12.5347368 C34.7946194,9.43578947 38.6568241,7.21263158 43.8779528,6.13473684 C44.0925197,6.06736842 44.3786089,6 44.6646982,6 L120.406824,6 C120.549869,6 120.764436,6 120.979003,6.06736842 C126.271654,7.14526316 130.133858,9.36842105 132.851706,12.5347368 C135.641076,15.9031579 137,20.1473684 137,24.9305263 C137,25.4694737 136.856955,26.0084211 136.499344,26.4126316 L126.48622,42.0421053 C130.133858,43.9957895 133.423885,46.2189474 136.141732,48.7115789 C136.642388,49.1831579 137,49.9242105 137,50.6652632 L137,99.3052632 C137,100.787368 135.712598,102 134.139108,102 L30.8608924,102 C29.2874016,102 28,100.787368 28,99.3052632 L28,50.6652632 C28,49.9242105 28.3576115,49.1831579 28.8582677,48.7115789 Z" id="Path" fill="url(#linearGradient-2)" fill-rule="nonzero"></path>
            <polygon id="Path" fill="#FFC626" points="73.36 53.4265 73.36 69.5735 90.64 69.5735 90.64 53.4265"></polygon>
            <path d="M33.9363517,22.2357895 L131.063648,22.2357895 C130.706037,19.7431579 129.847769,17.5873684 128.345801,15.9031579 C126.557743,13.7473684 123.839895,12.1978947 120.049213,11.3894737 L44.9507874,11.3894737 C41.160105,12.1978947 38.4422572,13.7473684 36.6541995,15.9031579 C35.152231,17.5873684 34.2939633,19.7431579 33.9363517,22.2357895 Z M84.7171916,62.2526316 L85.9330709,66.4294737 L79.0669291,66.4294737 L80.2828084,62.2526316 C79.5675853,61.6463158 79.0669291,60.7705263 79.0669291,59.76 C79.0669291,58.0084211 80.5688976,56.5263158 82.5,56.5263158 C84.4311024,56.5263158 85.9330709,58.0084211 85.9330709,59.76 C85.9330709,60.7705263 85.503937,61.6463158 84.7171916,62.2526316 Z M96.8759843,53.36 L96.8759843,72.2905263 C96.8759843,73.7726316 95.5885827,74.9852632 94.0150919,74.9852632 L71.0564304,74.9852632 C69.4114173,74.9852632 68.1955381,73.7726316 68.1955381,72.2905263 L68.1955381,53.36 L33.7217848,53.36 L33.7217848,96.6105263 L131.278215,96.6105263 L131.278215,53.36 L96.8759843,53.36 Z M73.9173228,53.36 L73.9173228,69.5957895 L91.0826772,69.5957895 L91.0826772,53.36 L73.9173228,53.36 Z M28.8582677,48.7115789 C31.5761155,46.2189474 34.7946194,43.9957895 38.3707349,42.1094737 L28.5006562,26.4126316 C28.2145669,26.0084211 28,25.4694737 28,24.9305263 C28,20.1473684 29.3589239,15.9031579 32.2198163,12.5347368 C34.7946194,9.43578947 38.6568241,7.21263158 43.8779528,6.13473684 C44.0925197,6.06736842 44.3786089,6 44.6646982,6 L120.406824,6 C120.549869,6 120.764436,6 120.979003,6.06736842 C126.271654,7.14526316 130.133858,9.36842105 132.851706,12.5347368 C135.641076,15.9031579 137,20.1473684 137,24.9305263 C137,25.4694737 136.856955,26.0084211 136.499344,26.4126316 L126.48622,42.0421053 C130.133858,43.9957895 133.423885,46.2189474 136.141732,48.7115789 C136.642388,49.1831579 137,49.9242105 137,50.6652632 L137,99.3052632 C137,100.787368 135.712598,102 134.139108,102 L30.8608924,102 C29.2874016,102 28,100.787368 28,99.3052632 L28,50.6652632 C28,49.9242105 28.3576115,49.1831579 28.8582677,48.7115789 Z M35.9389764,27.6252632 L43.5203412,39.6842105 C46.023622,38.6063158 48.6699475,37.7305263 51.3877953,36.9221053 C61.4009186,33.8905263 72.4868766,32.4084211 82.5,32.4084211 C92.5131234,32.4084211 103.670604,33.8905263 113.612205,36.9221053 C116.330052,37.6631579 118.904856,38.6063158 121.336614,39.6168421 L129.061024,27.6252632 L82.5,27.6252632 L35.9389764,27.6252632 Z M125.914042,47.9705263 C121.83727,45.5452632 117.045276,43.5915789 111.895669,42.0421053 C102.526247,39.2126316 92.0124672,37.8652632 82.5,37.8652632 C72.9875328,37.8652632 62.4737533,39.2126316 53.1043307,42.0421053 C47.9547244,43.5915789 43.1627297,45.5452632 39.085958,47.9705263 L71.0564304,47.9705263 L94.0150919,47.9705263 L125.914042,47.9705263 Z" id="Shape" fill="#31323D" fill-rule="nonzero"></path>
            <path d="M126,48.525 C121.915157,46.113 117.113674,44.17 111.953871,42.629 C102.565898,39.815 92.0313015,38.475 82.5,38.475 C72.9686985,38.475 62.4341021,39.815 53.0461285,42.629 C47.8863262,44.17 43.0848435,46.113 39,48.525 L71.0337727,48.525 L94.0378913,48.525 L126,48.525 Z" id="Path" fill="#FFC626"></path>
            <path d="M36,27.5035 L43.5714286,39.4965 C46.0714286,38.4245 48.7142857,37.5535 51.4285714,36.7495 C61.4285714,33.7345 72.5,32.2605 82.5,32.2605 C92.5,32.2605 103.642857,33.7345 113.571429,36.7495 C116.285714,37.4865 118.857143,38.4245 121.285714,39.4295 L129,27.5035 L82.5,27.5035 L36,27.5035 Z" id="Path" fill="#FFC626"></path>
            <g id="Group" transform="translate(145.000000, 19.000000)" fill-rule="nonzero" stroke="#FFC626" stroke-linecap="round" stroke-linejoin="bevel" stroke-width="3">
                <path d="M0.478991597,11.5578947 L16.2857143,1.21026316" id="Line"></path>
                <path d="M0.475,23.7078947 L18.1202219,23.7078947" id="Line"></path>
            </g>
            <g id="Group" transform="translate(9.500000, 32.000000) scale(-1, 1) translate(-9.500000, -32.000000) translate(0.000000, 19.000000)" fill-rule="nonzero" stroke="#FFC626" stroke-linecap="round" stroke-linejoin="bevel" stroke-width="3">
                <path d="M0.478991597,11.5578947 L16.2857143,1.21026316" id="Line"></path>
                <path d="M0.475,23.7078947 L18.1202219,23.7078947" id="Line"></path>
            </g>
        </g>
    </g>
</svg>