<?xml version="1.0" encoding="UTF-8"?>
<svg width="98px" height="98px" viewBox="0 0 98 98" version="1.1" xmlns="http://www.w3.org/2000/svg" xmlns:xlink="http://www.w3.org/1999/xlink">
    <!-- Generator: Sketch 54.1 (76490) - https://sketchapp.com -->
    <title>label icon</title>
    <desc>Created with Sketch.</desc>
    <defs>
        <path d="M31.06,7.10542736e-15 C31.084,7.10542736e-15 31.107,7.10542736e-15 31.13,7.10542736e-15 C36.893,7.10542736e-15 41.872,1.995 45.939,6.042 C59.76,19.795 73.543,33.588 87.304,47.402 C90.837,50.949 90.926,55.278 87.4,58.849 C77.928,68.445 68.385,77.974 58.8,87.457 C55.31,90.911 50.877,90.762 47.344,87.227 C33.426,73.302 19.512,59.374 5.646,45.398 C1.922,41.644 0.128,36.981 0.034,31.706 C-0.035,27.845 0.021,23.983 0.021,20.121 C0.021,16.386 0.019,12.651 0.021,8.916 C0.025,2.926 2.977,0.007 9.028,0.006 C11.438,0.006 13.848,0.007 16.257,0.009 C21.192,0.011 26.125,0.015 31.06,7.10542736e-15 Z M11.369,19.063 C11.408,23.211 14.843,26.604 18.999,26.604 C19.009,26.604 19.02,26.604 19.03,26.604 C23.197,26.586 26.615,23.157 26.619,18.989 C26.622,14.822 23.21,11.38 19.051,11.355 C14.806,11.329 11.329,14.817 11.369,19.063 Z" id="path-1"></path>
        <linearGradient x1="0.0373745602%" y1="0.0170213796%" x2="0.0373745602%" y2="1126.18278%" id="linearGradient-3">
            <stop stop-color="#FFAC6C" offset="0%"></stop>
            <stop stop-color="#F88345" offset="100%"></stop>
        </linearGradient>
        <path d="M31.06,7.10542736e-15 C26.125,0.015 21.192,0.011 16.257,0.009 L16.257,0.009 C13.848,0.007 11.438,0.006 9.028,0.006 L9.028,0.006 C2.977,0.007 0.025,2.926 0.021,8.916 L0.021,8.916 C0.019,12.651 0.021,16.386 0.021,20.121 L0.021,20.121 C0.021,23.983 -0.035,27.845 0.034,31.706 L0.034,31.706 C0.128,36.981 1.922,41.644 5.646,45.398 L5.646,45.398 C19.512,59.374 33.426,73.302 47.344,87.227 L47.344,87.227 C50.877,90.762 55.31,90.911 58.8,87.457 L58.8,87.457 C68.385,77.974 77.928,68.445 87.4,58.849 L87.4,58.849 C90.926,55.278 90.837,50.949 87.304,47.402 L87.304,47.402 C73.543,33.588 59.76,19.795 45.939,6.042 L45.939,6.042 C41.872,1.995 36.893,7.10542736e-15 31.131,7.10542736e-15 L31.131,7.10542736e-15 C31.107,7.10542736e-15 31.084,7.10542736e-15 31.06,7.10542736e-15 M11.369,19.063 C11.329,14.817 14.806,11.329 19.051,11.355 L19.051,11.355 C23.21,11.38 26.622,14.822 26.619,18.989 L26.619,18.989 C26.615,23.157 23.197,26.586 19.03,26.604 L19.03,26.604 C19.019,26.604 19.009,26.604 18.999,26.604 L18.999,26.604 C14.843,26.604 11.408,23.211 11.369,19.063" id="path-4"></path>
        <linearGradient x1="50.0002524%" y1="-0.000581116162%" x2="50.0002524%" y2="100.000084%" id="linearGradient-6">
            <stop stop-color="#FFAC6C" offset="0%"></stop>
            <stop stop-color="#F88345" offset="100%"></stop>
        </linearGradient>
        <path d="M-40,129.965 L129.999,129.965 L129.999,-40 L-40,-40 L-40,129.965 Z M31.06,7.10542736e-15 C36.853,-0.017 41.856,1.979 45.939,6.042 L45.939,6.042 C59.76,19.795 73.543,33.588 87.304,47.402 L87.304,47.402 C90.837,50.949 90.926,55.278 87.4,58.849 L87.4,58.849 C77.928,68.445 68.385,77.974 58.8,87.457 L58.8,87.457 C55.31,90.911 50.877,90.762 47.344,87.227 L47.344,87.227 C33.426,73.302 19.512,59.374 5.646,45.398 L5.646,45.398 C1.922,41.644 0.128,36.981 0.034,31.706 L0.034,31.706 C-0.035,27.845 0.021,23.983 0.021,20.121 L0.021,20.121 C0.021,16.386 0.019,12.651 0.021,8.916 L0.021,8.916 C0.025,2.926 2.977,0.007 9.028,0.006 L9.028,0.006 C11.438,0.006 13.848,0.007 16.257,0.009 L16.257,0.009 C18.318,0.01 20.377,0.011 22.438,0.011 L22.438,0.011 C25.311,0.011 28.186,0.009 31.06,7.10542736e-15 L31.06,7.10542736e-15 Z M11.369,19.063 C11.408,23.221 14.86,26.621 19.03,26.604 L19.03,26.604 C23.197,26.586 26.615,23.157 26.619,18.989 L26.619,18.989 C26.622,14.822 23.21,11.38 19.051,11.355 L19.051,11.355 C19.035,11.355 19.019,11.355 19.003,11.355 L19.003,11.355 C14.781,11.355 11.329,14.833 11.369,19.063 L11.369,19.063 Z" id="path-7"></path>
    </defs>
    <g id="Page-1" stroke="none" stroke-width="1" fill="none" fill-rule="evenodd">
        <g id="label-icon" transform="translate(4.000000, 4.000000)">
            <mask id="mask-2" fill="white">
                <use xlink:href="#path-1"></use>
            </mask>
            <g id="Clip-2"></g>
            <polygon id="Fill-1" fill="url(#linearGradient-3)" mask="url(#mask-2)" points="-0.034 90.912 90.926 90.912 90.926 -0.016 -0.034 -0.016"></polygon>
            <mask id="mask-5" fill="white">
                <use xlink:href="#path-4"></use>
            </mask>
            <g id="Clip-5"></g>
            <path d="M31.06,7.10542736e-15 C26.125,0.015 21.192,0.011 16.257,0.009 L16.257,0.009 C13.848,0.007 11.438,0.006 9.028,0.006 L9.028,0.006 C2.977,0.007 0.025,2.926 0.021,8.916 L0.021,8.916 C0.019,12.651 0.021,16.386 0.021,20.121 L0.021,20.121 C0.021,23.983 -0.035,27.845 0.034,31.706 L0.034,31.706 C0.128,36.981 1.922,41.644 5.646,45.398 L5.646,45.398 C19.512,59.374 33.426,73.302 47.344,87.227 L47.344,87.227 C50.877,90.762 55.31,90.911 58.8,87.457 L58.8,87.457 C68.385,77.974 77.928,68.445 87.4,58.849 L87.4,58.849 C90.926,55.278 90.837,50.949 87.304,47.402 L87.304,47.402 C73.543,33.588 59.76,19.795 45.939,6.042 L45.939,6.042 C41.872,1.995 36.893,7.10542736e-15 31.131,7.10542736e-15 L31.131,7.10542736e-15 C31.107,7.10542736e-15 31.084,7.10542736e-15 31.06,7.10542736e-15 M11.369,19.063 C11.329,14.817 14.806,11.329 19.051,11.355 L19.051,11.355 C23.21,11.38 26.622,14.822 26.619,18.989 L26.619,18.989 C26.615,23.157 23.197,26.586 19.03,26.604 L19.03,26.604 C19.019,26.604 19.009,26.604 18.999,26.604 L18.999,26.604 C14.843,26.604 11.408,23.211 11.369,19.063" id="Fill-4" fill="url(#linearGradient-6)" mask="url(#mask-5)"></path>
            <mask id="mask-8" fill="white">
                <use xlink:href="#path-7"></use>
            </mask>
            <g id="Clip-8"></g>
            <path d="M87.3037,47.4016 C73.5427,33.5876 59.7607,19.7946 45.9397,6.0416 C41.8557,1.9786 36.8527,-0.0164 31.0597,-0.0004 C23.7157,0.0206 16.3727,0.0036 9.0287,0.0056 C2.9767,0.0066 0.0247,2.9266 0.0207,8.9156 C0.0187,12.6506 0.0207,16.3856 0.0207,20.1206 C0.0207,23.9826 -0.0343,27.8446 0.0337,31.7056 C0.1277,36.9806 1.9217,41.6446 5.6457,45.3986 C19.5117,59.3746 33.4267,73.3016 47.3437,87.2266 C50.8767,90.7616 55.3097,90.9116 58.7997,87.4576 C68.3847,77.9736 77.9277,68.4456 87.4007,58.8486 C90.9257,55.2776 90.8367,50.9486 87.3037,47.4016 Z M19.0297,26.6036 C14.8607,26.6206 11.4077,23.2216 11.3687,19.0626 C11.3287,14.8176 14.8057,11.3286 19.0507,11.3546 C23.2097,11.3796 26.6217,14.8216 26.6187,18.9886 C26.6157,23.1566 23.1967,26.5866 19.0297,26.6036 Z" id="Stroke-7" stroke="#31323D" stroke-width="8" mask="url(#mask-8)"></path>
        </g>
    </g>
</svg>