<?xml version="1.0" encoding="UTF-8"?>
<svg width="210px" height="210px" viewBox="0 0 210 210" version="1.1" xmlns="http://www.w3.org/2000/svg" xmlns:xlink="http://www.w3.org/1999/xlink">
    <!-- Generator: Sketch 54.1 (76490) - https://sketchapp.com -->
    <title>sale icon with bg</title>
    <desc>Created with Sketch.</desc>
    <defs>
        <linearGradient x1="50%" y1="0%" x2="50%" y2="100%" id="linearGradient-1">
            <stop stop-color="#FFAC6C" offset="0%"></stop>
            <stop stop-color="#F88345" offset="100%"></stop>
        </linearGradient>
        <path d="M147.304408,107.420317 C133.543344,93.6010068 119.761281,79.8027047 105.939217,66.0444181 C101.856198,61.9798562 96.8531747,59.9840894 91.0601479,60.0000955 C83.716114,60.0211036 76.37308,60.004097 69.029046,60.0060978 C62.9770181,60.0070982 60.0250044,62.9282207 60.0210044,68.9195228 C60.0190044,72.6559586 60.0210044,76.3923943 60.0210044,80.1288301 C60.0210044,83.9923146 59.9660041,87.8557992 60.0340044,91.7182834 C60.1280049,96.9953111 61.9220132,101.661104 65.6460304,105.416547 C79.5110945,119.397919 93.4271589,133.330273 107.344223,147.260626 C110.87724,150.796985 115.31026,150.947042 118.800276,147.491715 C128.385321,138.004069 137.928365,128.472406 147.400408,118.871717 C150.926425,115.299344 150.837424,110.96868 147.304408,107.420317 Z M79.0300923,86.6143221 C74.861073,86.6313287 71.4080571,83.2310221 71.3690569,79.0704234 C71.3290567,74.8237916 74.8060728,71.3334504 79.0510924,71.3594604 C83.2101116,71.38447 86.6221274,74.8277931 86.6191274,78.9963949 C86.6151274,83.1659971 83.1971116,86.5973156 79.0300923,86.6143221 Z" id="path-2"></path>
        <filter x="-12.2%" y="-10.0%" width="124.4%" height="124.4%" filterUnits="objectBoundingBox" id="filter-3">
            <feMorphology radius="4" operator="dilate" in="SourceAlpha" result="shadowSpreadOuter1"></feMorphology>
            <feOffset dx="0" dy="2" in="shadowSpreadOuter1" result="shadowOffsetOuter1"></feOffset>
            <feGaussianBlur stdDeviation="2" in="shadowOffsetOuter1" result="shadowBlurOuter1"></feGaussianBlur>
            <feComposite in="shadowBlurOuter1" in2="SourceAlpha" operator="out" result="shadowBlurOuter1"></feComposite>
            <feColorMatrix values="0 0 0 0 0   0 0 0 0 0   0 0 0 0 0  0 0 0 0.496831294 0" type="matrix" in="shadowBlurOuter1"></feColorMatrix>
        </filter>
    </defs>
    <g id="sale-icon-with-bg" stroke="none" stroke-width="1" fill="none" fill-rule="evenodd">
        <rect fill="#FAE1CA" x="0" y="0" width="210" height="210"></rect>
        <g id="Shape" fill-rule="nonzero">
            <use fill="black" fill-opacity="1" filter="url(#filter-3)" xlink:href="#path-2"></use>
            <path stroke="#31323D" stroke-width="4" d="M148.721605,106.009093 L148.721683,106.009172 C153.042666,110.348924 153.108159,115.936008 148.824129,120.27636 C139.851591,129.370758 130.447857,138.776585 120.207409,148.912974 C115.942705,153.13529 110.249812,152.998729 105.929335,148.674164 C85.817803,128.543429 75.873897,118.570526 64.2258874,106.824806 C60.2045066,102.76949 58.1393257,97.6486525 58.0343143,91.7534886 C57.9948125,89.5097481 57.992842,87.7204446 58.0105215,83.7013229 C58.0183851,81.9136839 58.0210044,81.1197361 58.0210044,80.1288301 C58.0210044,79.0910898 58.0208933,78.2608501 58.02056,76.3927512 C58.0198932,72.6558396 58.0198932,70.9948843 58.0210048,68.9181876 C58.0257449,61.8184014 61.8772841,58.00728 69.0285012,58.0060979 C71.0692811,58.0055419 72.7016636,58.0061534 76.3740014,58.0083212 C78.209801,58.0094049 79.0256078,58.0098425 80.0453462,58.0102245 C84.5019366,58.0118941 87.8086555,58.0093884 91.0546219,58.0001031 C97.4078866,57.9825491 102.911163,60.2080106 107.350156,64.626938 C120.243222,77.4605126 133.689368,90.9132292 148.721605,106.009093 Z M79.0219299,84.6143388 C82.0879089,84.6018259 84.6161838,82.063859 84.6191279,78.9949556 C84.6213368,75.925657 82.0965316,73.3778098 79.0388383,73.3594229 C75.9108276,73.340257 73.3394835,75.9213372 73.368969,79.0516768 C73.3976466,82.1110465 75.9525035,84.6268598 79.0219338,84.6143388 Z" fill="url(#linearGradient-1)" fill-rule="evenodd"></path>
        </g>
    </g>
</svg>