<svg xmlns="http://www.w3.org/2000/svg" xmlns:xlink="http://www.w3.org/1999/xlink" viewBox="0 0 68 80"><defs><style>.cls-1{fill:none;}.cls-2{clip-path:url(#clip-path);}.cls-3{fill:#fff;}</style><clipPath id="clip-path"><path class="cls-1" d="M51.5,28A11.5,11.5,0,1,0,40,16.5a15.46,15.46,0,0,0,.4,3.1l-17,11.2a11,11,0,0,0-6.9-2.3,11.5,11.5,0,0,0,0,23,11.66,11.66,0,0,0,6.9-2.3l17,11.2a11.27,11.27,0,0,0-.5,3.2A11.57,11.57,0,0,0,51.5,75a11.5,11.5,0,0,0,0-23,11.1,11.1,0,0,0-7.9,3.2L27.1,44.4A10.82,10.82,0,0,0,28,40a10.49,10.49,0,0,0-.9-4.4L43.5,24.8A11.52,11.52,0,0,0,51.5,28Z"/></clipPath></defs><title>share icon</title><g id="Layer_2" data-name="Layer 2"><g id="Layer_1-2" data-name="Layer 1"><g class="cls-2"><rect class="cls-3" width="68" height="80"/></g></g></g></svg>